<svg width="244" height="227" viewBox="0 0 244 227" fill="none" xmlns="http://www.w3.org/2000/svg">
<path d="M105.78 146.638L124.02 204.597L168.004 162.909L105.78 146.638Z" fill="#FDB60D"/>
<path d="M243.428 93.3376L73.8743 49L47.6805 149.169L217.234 193.506L243.428 93.3376Z" fill="#FDB60D"/>
<path d="M134.685 90.0643C135.373 90.2441 136.061 90.4239 136.736 90.6005C136.82 90.6359 136.901 90.6838 136.973 90.716C138.573 91.2411 140.067 91.9658 141.448 92.9149C145.802 95.8838 148.53 99.9637 149.609 105.136C149.623 105.233 149.654 105.321 149.687 105.45C149.779 105.354 149.833 105.301 149.877 105.233C151.138 103.785 152.562 102.528 154.197 101.539C159.681 98.2438 165.439 97.7322 171.403 100.013C175.143 101.445 178.111 103.891 180.294 107.241C182.863 111.16 183.873 115.472 183.321 120.137C183.263 120.616 183.192 121.092 183.118 121.58C182.944 122.243 182.768 122.918 182.594 123.581C182.556 123.678 182.508 123.759 182.469 123.856C182.035 125.158 181.448 126.381 180.764 127.565C178.969 130.649 176.646 133.301 174.058 135.738C170.168 139.423 165.852 142.543 161.338 145.397C153.548 150.308 145.352 154.417 136.865 157.956C136.535 158.097 136.201 158.25 135.882 158.394C135.845 158.384 135.807 158.374 135.77 158.364C135.733 158.301 135.699 158.225 135.65 158.159C131.576 153.046 127.828 147.71 124.361 142.168C121.346 137.345 118.594 132.39 116.296 127.179C114.487 123.059 112.997 118.848 112.192 114.416C111.748 111.922 111.559 109.428 111.818 106.904C111.875 106.331 111.968 105.767 112.037 105.197C112.237 104.435 112.436 103.672 112.636 102.909C112.674 102.812 112.722 102.731 112.761 102.634C113.211 101.63 113.579 100.577 114.11 99.6205C116.029 96.1143 118.804 93.4731 122.394 91.6998C125.814 90.0156 129.419 89.4086 133.211 89.8791C133.718 89.9316 134.194 90.0025 134.685 90.0643Z" fill="#FF318C"/>
<path d="M148.5 49L148.66 48.1148C150.835 36.1767 160.177 26.8438 172.115 24.6602L173 24.5L172.115 24.3398C160.177 22.1647 150.844 12.8233 148.66 0.885227L148.5 0L148.34 0.885227C146.165 12.8233 136.823 22.1562 124.885 24.3398L124 24.5L125.863 24.9047C137.675 27.4761 146.671 37.0619 148.5 49Z" fill="white"/>
<path d="M19 111L19.1242 110.313C20.8111 101.055 28.0554 93.8176 37.3135 92.1242L38 92L37.3135 91.8758C28.0554 90.1889 20.8176 82.9446 19.1242 73.6865L19 73L18.8758 73.6865C17.1889 82.9446 9.94459 90.1824 0.686504 91.8758L0 92L1.44492 92.3138C10.6049 94.308 17.5812 101.742 19 111Z" fill="white"/>
</svg>
