<svg width="245" height="278" viewBox="0 0 245 278" fill="none" xmlns="http://www.w3.org/2000/svg">
<path d="M244.488 206.623H38.2285V277.385H244.488V206.623Z" fill="#3BEA62"/>
<path d="M96.7397 198.323H83.8275V259.324H96.7397V198.323Z" fill="black"/>
<path d="M96.7403 246.385H60.2011V259.298H96.7403V246.385Z" fill="black"/>
<path d="M199.095 198.323H186.182V259.324H199.095V198.323Z" fill="black"/>
<path d="M199.096 246.385H162.557V259.298H199.096V246.385Z" fill="black"/>
<path d="M244.486 0H37.9271V206.55H244.486V0Z" fill="black"/>
<path d="M137.874 167.795H60.4103V180.707H137.874V167.795Z" fill="white"/>
<path d="M42.7947 139.483C66.4126 139.483 85.563 120.332 85.563 96.7146C85.563 73.0967 66.4126 53.9463 42.7947 53.9463C19.1768 53.9463 0.0264613 73.0967 0.0264613 96.7146C0.0173809 120.332 19.1678 139.483 42.7947 139.483Z" fill="white"/>
<path d="M31.3543 126.543C48.6705 126.543 62.7086 112.505 62.7086 95.1888C62.7086 77.8726 48.6705 63.8345 31.3543 63.8345C14.0382 63.8345 0 77.8726 0 95.1888C0 112.505 14.0382 126.543 31.3543 126.543Z" fill="black"/>
<path d="M31.3541 95.1346L64.0705 84.3926V107.947L31.3541 95.1346Z" fill="white"/>
<path d="M117.083 139.483C140.701 139.483 159.851 120.332 159.851 96.7146C159.851 73.0967 140.701 53.9463 117.083 53.9463C93.4653 53.9463 74.3149 73.0967 74.3149 96.7146C74.3149 120.332 93.4653 139.483 117.083 139.483Z" fill="white"/>
<path d="M105.669 126.543C122.985 126.543 137.024 112.505 137.024 95.1888C137.024 77.8726 122.985 63.8345 105.669 63.8345C88.3531 63.8345 74.3149 77.8726 74.3149 95.1888C74.3149 112.505 88.3531 126.543 105.669 126.543Z" fill="black"/>
<path d="M105.668 95.1346L138.384 84.3926V107.947L105.668 95.1346Z" fill="white"/>
</svg>
